<svg xmlns="http://www.w3.org/2000/svg" viewBox="0 0 584.88 648.53"><title>Happliy Ever After</title><g id="Layer_2" data-name="Layer 2"><g id="Layer_1-2" data-name="Layer 1"><path d="M86.83,520.43l.18,0c4-.48,8.09-3.08,12.3-7.82a75.08,75.08,0,0,0,11.31-17.42,11.81,11.81,0,0,0,3.29,1,14.89,14.89,0,0,0,10.82-2.68A44.67,44.67,0,0,0,127.42,516c3,7.42,8,12,15,13.53a15.28,15.28,0,0,0,14.46-3.88A45.32,45.32,0,0,0,167.11,512Q171,504,175,493.23c.61-1.59,1.22-3.19,1.82-4.78a15,15,0,0,0,9.26-3.75,53.61,53.61,0,0,0,9.67-10.38,179.65,179.65,0,0,0-2.58,18.91c-1,11.37-.75,21.16.91,29.36s5.55,12.78,11.64,13.67l.18,0c4.19-.12,7.93-2.18,11.19-6.18a52.39,52.39,0,0,0,8.07-14.22c2.13-5.49,4.81-13.26,7.93-23.34a1.91,1.91,0,0,0-.26-1.64,1.76,1.76,0,0,0-1.37-.72,2,2,0,0,0-2,1.51c-7.84,25.77-13.66,38.22-16.76,37.47-3.38-.78-4.42-7.13-3.17-19a233.27,233.27,0,0,1,4.39-28.52,8.88,8.88,0,0,0,.32-2.08,9.65,9.65,0,0,0-1.8-6.45,14.22,14.22,0,0,0-5.21-4.53,16.09,16.09,0,0,0-5.92-1.87c-1.72-.14-3,.18-3.72,1a65.06,65.06,0,0,0-5.82,6.45,65.26,65.26,0,0,1-6.36,6.94,16.42,16.42,0,0,1-6.46,3.65c3-7.06,4.66-12.84,5.11-17.35a25.57,25.57,0,0,0-.09-7.64c-1-2.8-2.46-4.69-4.42-5.66a15.9,15.9,0,0,0-2.34-.57q-5.94-.66-9.76,5.4A27.34,27.34,0,0,0,163.5,470a16.55,16.55,0,0,0,.08,5.22,17,17,0,0,0,3,7.91,13.08,13.08,0,0,0,6.52,4.82,122,122,0,0,1-11.31,24.8c-4.74,7.8-9,11.45-12.62,11a5.16,5.16,0,0,1-3.7-2.76c-3.74-6.14-4.69-13.72-3-22.73A18.79,18.79,0,0,0,155,491.64a23.81,23.81,0,0,0,5.68-12.9A18.31,18.31,0,0,0,159,467.79a9.6,9.6,0,0,0-7.62-5.38c-6.9-.59-12.65,2-17.33,7.69a42.46,42.46,0,0,0-8.41,18.13,18,18,0,0,1-1.95,2,9.88,9.88,0,0,1-8.44,2.43,11.1,11.1,0,0,1-2.95-.81q.9-2.14,1.79-4.29a24.24,24.24,0,0,0,3.84-10.35c.09-.53.18-1.06.26-1.59a24,24,0,0,0-1.07-10.9q-1.71-4.62-5-5.17c-2.4-.41-4.63.82-6.73,3.68A26.69,26.69,0,0,0,101,474.55a20,20,0,0,0,.75,10.55,18.05,18.05,0,0,0,5.62,7.93A94.87,94.87,0,0,1,97,508.46q-4.2,4.85-6.36,4.45c-1.21-.22-1.95-1.56-2.24-4a106.68,106.68,0,0,1-.3-12.38q0-10,1.17-22.22c.75-8.14,1.41-14.18,1.92-18.14A4.1,4.1,0,0,0,89,453.44a14.16,14.16,0,0,0-4.78-1.76,21.56,21.56,0,0,0-3.68-.4,3.73,3.73,0,0,0-.17-1.93,2.29,2.29,0,0,0-1.74-1.56q-2.48-.5-3.38,2.67l-.72,1.62c-1.86.66-2.9,1.68-3.11,3.1s-.42,3.12-.6,4.86a166.77,166.77,0,0,1-15.91,26c-8,10.62-14.67,15.29-19.87,14.07q-3.12-.72-4.94-4.55c-4.5-9.46-4.67-20.59-.79-33.36a26.82,26.82,0,0,0,19-7.65,35.09,35.09,0,0,0,10.06-17.85,27.16,27.16,0,0,0-.8-16.1,13.62,13.62,0,0,0-9.94-8.87c-9.67-1.86-18.2.94-25.8,8.5S8.7,437.63,5.35,449.89c-3.43,12.55-3.69,24.44-.52,35.66s9.77,18.6,19.68,22c7.66,2.66,14.91,1.5,21.58-3.44A64.78,64.78,0,0,0,62.8,485.69c2.35-3.82,4.75-8,7.2-12.62-.07,1.77-.12,3.6-.16,5.53a98,98,0,0,0,3.3,27.87C75.55,515.29,80.17,520,86.83,520.43Zm64.61-52.14q1.6-1.57,2.52.9a15,15,0,0,1,.35,6.81,25.51,25.51,0,0,1-3.37,9.66,18.27,18.27,0,0,1-7.95,7.26C144.3,481.57,147.14,473.38,151.44,468.29Zm-104.55-48c1.69-1.37,2.82-.81,3.43,1.66s.43,5.78-.55,9.9a37.31,37.31,0,0,1-6.3,13.5A26.39,26.39,0,0,1,31,454.62C34.63,438.41,40,427,46.89,420.26Z"/><path d="M578.06,454a1.77,1.77,0,0,0-1.54-.25,2,2,0,0,0-1.47,2.07c.63,26.94-1,40.61-4.22,40.87q-5.19.5-9-17a233.37,233.37,0,0,1-4.8-28.45,8.77,8.77,0,0,0-.35-2.08,9.63,9.63,0,0,0-3.75-5.55,14.48,14.48,0,0,0-6.41-2.65,16.12,16.12,0,0,0-6.24.11c-1.69.4-2.77,1.1-3.25,2.1a67.35,67.35,0,0,0-3.52,8,64.83,64.83,0,0,1-3.88,8.59,16.64,16.64,0,0,1-5,5.51q.9-11.46-.6-18.08a25.5,25.5,0,0,0-2.49-7.22q-2.73-3.52-6-4a17.46,17.46,0,0,0-2.42.19c-3.92.85-6.44,3.57-7.6,8.21a27.37,27.37,0,0,0-.26,11.76A16.45,16.45,0,0,0,507,461a16.88,16.88,0,0,0,5.31,6.57A13.18,13.18,0,0,0,520,470.1a120.57,120.57,0,0,1-3,27.1c-2.06,8.9-4.95,13.71-8.55,14.42a5.16,5.16,0,0,1-4.39-1.46c-5.5-4.64-8.8-11.54-10-20.63A18.85,18.85,0,0,0,504,479.32a23.8,23.8,0,0,0,1.35-14,18.25,18.25,0,0,0-5.09-9.86,9.65,9.65,0,0,0-9-2.7c-6.75,1.61-11.41,5.84-14,12.75-2.56,6.71-3.22,14.22-1.92,22.52q-.49,3.67-1.14,7.92c-1.12,7.46-2.45,13.05-3.93,16.78-1.3,2.72-2.48,4.16-3.57,4.33q-6,.94-11.67-36.61-2.25-14.87-4-32.24c1.38-.1,3.41-.36,6.13-.79,9.7-1.54,17.5-4.94,23.27-10a1.27,1.27,0,0,0-.07-1.8,1.92,1.92,0,0,0-2-.79l-.34.06c-3.77,3.31-9.17,5.58-16.13,6.72-3.7.61-7.5,1.05-11.36,1.32q-2-20-1.68-27.37c-.21-2-2.19-3.83-5.93-5.39s-7-2.15-9.84-1.75c-2.16.31-3.3,1.33-3.39,3.09a32.11,32.11,0,0,0-.13,4.22,17.29,17.29,0,0,0-3.61-8.53,9.91,9.91,0,0,0-7.88-3.45c-8.33.95-15.25,5.93-21,15S387,439.23,384.06,453a184.78,184.78,0,0,0-3.8,30.63q-1.53,7.51-4,17.8c-2.15,9-4.38,15.69-6.59,20.08-2.62,5.23-4.92,7.89-6.86,8-1.78.11-3.22-1.85-4.28-5.9a82.54,82.54,0,0,1-2.16-15.77q-.61-10.5-.23-22.24T357.34,470c0-2.51-2.33-4.92-6.89-7.24s-8.63-3.42-12.27-3.26q-4.19.18-4.7,3.37c-.29,1.34-.59,2.67-.9,4a35.65,35.65,0,0,0-7.81-6.38,27.58,27.58,0,0,0-10.59-4,25.46,25.46,0,0,0-17.43,5.49,45.59,45.59,0,0,0-13,15.66,46.74,46.74,0,0,0-5.56,18.69,39,39,0,0,0-.27,4.76,32.42,32.42,0,0,0,5.64,19.2c3.87,5.65,10,9.08,18.17,10.2a13.19,13.19,0,0,0,2.68.17c4.48-.05,8.45-2,11.85-6a53.29,53.29,0,0,0,8.6-14c2.33-5.43,5-12.57,8-21.42,0,2.25,0,4.5,0,6.75.47,12.43,2.63,22.54,6.62,30.31s10.17,11.66,18.46,11.58l.45,0c5.38-.85,9.82-3.93,13.26-9.22a62.53,62.53,0,0,0,7.95-18.8c.21-.82.42-1.69.64-2.59q.19,6.87.76,14c1.56,19.54,5.57,35.79,12.28,48.67s17.26,18.23,31.35,15.78a18.33,18.33,0,0,0,12.32-11.06c2.43-5.74,3.12-12.45,2.14-20.14a68.47,68.47,0,0,0-10.2-27.55,59.25,59.25,0,0,0-21-20.53,54.94,54.94,0,0,0,27.71-11.76,23.48,23.48,0,0,0,3.52-3.63,173.52,173.52,0,0,0,5.14,17.38c4.74,13.2,10.79,19.35,18,18.36,5.52-.51,9.64-5.07,12.23-13.64a123.45,123.45,0,0,0,3.4-15.1,42.14,42.14,0,0,0,7.53,13c5.21,6.08,11.43,8.8,18.56,8.1A15.31,15.31,0,0,0,516.51,511a45.31,45.31,0,0,0,5.4-16.22q1.2-8.75,1.63-20.26l.24-5.11a15.13,15.13,0,0,0,7.64-6.48,53.31,53.31,0,0,0,6-12.91,179.92,179.92,0,0,0,3.5,18.77q3.9,16.66,10.13,27.57t15.42,9.3l.18-.05c4-1.43,6.89-4.58,8.75-9.4a52.31,52.31,0,0,0,3.24-16.06c.31-5.88.41-14.1.23-24.66A1.88,1.88,0,0,0,578.06,454Zm-249.6,28.34c-.13.4-.25.8-.38,1.2A199.53,199.53,0,0,1,316.84,513c-3.87,7.83-7,11.75-9.42,11.79-1.33,0-2.32-1.29-2.94-3.93a76.27,76.27,0,0,1-2-16.84,83.35,83.35,0,0,1,3.08-23.85q3.17-11.14,10-17.84c1.25-.29,2.95.37,5.1,2a22.46,22.46,0,0,1,5.69,6.38,16.14,16.14,0,0,1,2.62,7.95A11.14,11.14,0,0,1,328.46,482.36Zm101.48-57.08c.33,5.44.86,11.64,1.61,18.68l-3.73.34c-.56.07-1.09.18-1.64.27.26-.84.51-1.67.75-2.52A82,82,0,0,0,429.94,425.28Zm-20.81-2c2.75-9.1,5.69-14.23,9-15.4q5.71-1.71,7.08,8.53c.74,5.66.28,12.84-1.5,21.54q-.76,3.72-1.83,7.42c-8.3,1.93-14.92,5.49-19.92,10.78.08-.51.15-1,.24-1.53A247.63,247.63,0,0,1,409.13,423.32Zm-7.62,35.44a1.83,1.83,0,0,0,1.75.65l.82-.41a22.66,22.66,0,0,1,8.9-6.11,47,47,0,0,1,7.14-2,111.21,111.21,0,0,1-5.51,13,64,64,0,0,1-15.91,20.81A246.5,246.5,0,0,1,401.51,458.76Zm22,70.49A60.75,60.75,0,0,1,433,554.4c.87,7.16.15,13.3-2.25,18.42s-6,7.95-10.88,8.48c-5.89-.88-10.29-5.26-13.15-13.09s-4.92-18.3-6.17-31.38q-.54-5.62-1.3-17.25-.33-7.11-.68-10.81a7.89,7.89,0,0,1,1.53,0,9,9,0,0,0,1.72,0l.36,0A64.77,64.77,0,0,1,423.51,529.25ZM405.8,503.66c-1.35-1.37-2.54-2.5-3.58-3.37a7.28,7.28,0,0,0-3.39-1.61,57.84,57.84,0,0,0-.22-5.82c0-1.57.05-3.14.07-4.72,5.37-3,10.79-8.9,16.08-17.65a110.18,110.18,0,0,0,9.6-20.35l.93-.14c2.94-.37,5.21-.62,6.8-.73.39,3.26.77,6.53,1.15,9.79q2,14.69,4.68,27C434.45,493.74,423.79,499.82,405.8,503.66Zm87.43-45.37q1-2,2.68.06a14.83,14.83,0,0,1,2.48,6.34,25.3,25.3,0,0,1-.16,10.24,18.26,18.26,0,0,1-5.29,9.39C490.62,473.14,490.74,464.47,493.23,458.29Z"/><path d="M7.72,344.8A37.83,37.83,0,0,0,23,350.63c3.74.48,5.54-.07,5.41-1.63A243.76,243.76,0,0,1,44.3,296.19c7.08-16.44,16-27.14,26.79-32a8.84,8.84,0,0,1,2.44-.25c2.27.26,3.51,2.44,3.68,6.53S77,280.72,75.89,288.9c-.51,4-1.07,8-1.58,12-2.28,17.37-1.72,33.92,1.9,49.68s11.8,27.63,24.54,35.51a55,55,0,0,0,47.11,4.67c7.27-2.71,12.59-6.68,16-11.86a15.31,15.31,0,0,0,1.5-5.22,8.83,8.83,0,0,0-.92-4.88,5.47,5.47,0,0,0-3.59-2.78,8.08,8.08,0,0,0-6.73,1.55,7.84,7.84,0,0,0-3.42,5.86,8,8,0,0,0,2.61,6.28c-2.89,3.18-7,5.78-12.3,7.76a36,36,0,0,1-15.66,2.33l-3.1-.51c-11.06-2.46-18-10.46-20.76-23.9a141.06,141.06,0,0,1-1.77-42.89c1.46-12,2.88-24,4.33-36,.79-10.28-.41-18.93-3.48-25.94S91.24,250,81.75,249.75c-8.72.76-16.8,5.9-24.43,15.35S43,286.21,37.11,300q1.17-7.36,4-22.09l1.8-8.1c5.79-2.62,13.26-8.26,22.28-17a211.25,211.25,0,0,0,26.41-31.75,175.53,175.53,0,0,0,20.3-38.75,150.52,150.52,0,0,0,8.26-35.25c1.93-18.53-1.49-29.24-10.12-32l-.24,0a31.55,31.55,0,0,0-21,2.62q-9.78,4.91-20,15.41c-14.63,15.13-27.38,37.34-38.2,66.19a521.78,521.78,0,0,0-25,90.18A405.44,405.44,0,0,0,0,333.78Q0,339.93,7.72,344.8ZM58.59,205.92q10.84-33.79,24.38-59c9-16.75,17.4-25.25,25.63-25.4q3.59.21,4.85,6.33t.16,16.26a137.82,137.82,0,0,1-4.42,22.1,178,178,0,0,1-7.83,22.45A218.1,218.1,0,0,1,73.8,234.23c-10.47,13.11-20.42,22.75-29.59,29C46.44,247.51,51.34,228.46,58.59,205.92Z"/><path d="M261.64,346.73a2.49,2.49,0,0,0-.69-1.94,2.87,2.87,0,0,0-1.95-.69,3.55,3.55,0,0,0-2.39.95,4,4,0,0,0-1.39,2.63c-.1,1.28-.19,2.56-.29,3.85-.21,10.89,3.69,16.78,11.78,17.56,8.63.41,15.34-3.68,20-12.09a80.72,80.72,0,0,0,9.18-27.29,63,63,0,0,0,.79-8.95A40.58,40.58,0,0,0,292.9,303a17.4,17.4,0,0,0-12.33-9.76A5.8,5.8,0,0,0,279,293c-6-.27-11.63,4.15-17,13.38s-10.76,21-16.36,35.33q.87-9.57,1.49-18.41c.42-5.89.72-10.25.93-13.07a6.63,6.63,0,0,0-.54-2.8c-1.17-2.16-3.8-4.42-7.9-6.83s-7.61-3.73-10.55-3.92c-2.43-.16-3.71.57-3.91,2.18,0,.25,0,.65-.14,1.2s-.14,1.46-.21,2.7c-.17,4.38-.27,10-.32,16.79q-2.24,6.62-5.52,15.53-4.51,12.21-8.32,18-4.5,6.92-7.21,6.78-2.5-.12-3.35-6a80.62,80.62,0,0,1-.37-15.1q.51-10,2.1-21c1.06-7.35,2-12.2,2.75-14.53.26-2.38-1.67-4.94-5.77-7.72s-7.86-4.32-11.32-4.61c-2.68-.22-4.26.66-4.79,2.65-.41,1.24-.82,2.47-1.24,3.71a35,35,0,0,0-6.8-7,26.35,26.35,0,0,0-9.71-5,23.54,23.54,0,0,0-17.08,3.49,42.73,42.73,0,0,0-13.68,13.94,45.77,45.77,0,0,0-6.77,17.59,40.39,40.39,0,0,0-.64,4.57,31.86,31.86,0,0,0,3.72,18.92q4.74,8.6,16.08,11.23a12.35,12.35,0,0,0,2.49.39q6.25.48,11.57-4.66A52.18,52.18,0,0,0,170,338.21q4-7.41,9.53-19.57-.31,3.21-.61,6.42c-.74,11.87.29,21.7,3.22,29.46s8.27,12,15.93,12.8l.42,0q7.59-.39,13.24-7.27a59.91,59.91,0,0,0,9.42-16.69q1.53-3.93,3.29-9.1-.24,24.12-.67,36c-.18,5.08-.38,8.43-.59,10a149.86,149.86,0,0,0-22.23,28.36c-6.94,11.21-10.74,20.94-11.21,29.18-.39,7,2,12,7.32,15a23.05,23.05,0,0,0,5.91.86c8.24.13,15.09-4.13,20.51-12.63s9.55-19.37,12.45-32.59,5.5-29.22,7.81-48a219,219,0,0,1,8.64-23.26,186.63,186.63,0,0,1,11.14-22.36c3.7-6.14,6.57-9.15,8.73-9.06,1.21.05,2.09,1.24,2.59,3.56a75.73,75.73,0,0,1,1.48,16.76,92.39,92.39,0,0,1-2.56,21.3c-1.66,6.7-4.08,11.57-7.33,14.57a4.75,4.75,0,0,1-2.94,1.43,3.36,3.36,0,0,1-3-2.23,11.65,11.65,0,0,1-1.05-5.51,16.89,16.89,0,0,1,1.78-7.29A5.27,5.27,0,0,0,261.64,346.73Zm-85.57-35.21c-.16.36-.31.73-.48,1.1a203,203,0,0,1-13.3,26.93c-4.34,7.11-7.64,10.59-9.86,10.41q-1.87-.13-2.39-4a75.28,75.28,0,0,1-.34-16.31,81.1,81.1,0,0,1,5-22.6q4-10.41,11-16.1c1.21-.14,2.76.67,4.67,2.43a22,22,0,0,1,4.79,6.72,15.73,15.73,0,0,1,1.72,7.87A10.55,10.55,0,0,1,176.07,311.52ZM215.5,432.24c-2.71,9.63-7.2,14.87-13.38,15.63q-4.59-.84-4.21-7.94c.22-4.49,1.84-10.19,4.78-17.09a146.62,146.62,0,0,1,10.06-19.54c3.76-6.12,6.93-10.25,9.57-12.42Q219.58,417.79,215.5,432.24Z"/><path d="M345,346.23a2.2,2.2,0,0,0-.77-1.79,3,3,0,0,0-2-.54,3.66,3.66,0,0,0-2.34,1,3.8,3.8,0,0,0-1.28,2.56l-.12,3.65c.25,10.31,4.4,15.65,12.48,15.87,8.61-.16,15.09-4.45,19.39-12.63a73.83,73.83,0,0,0,8-26.06,53,53,0,0,0,.43-8.4,35.74,35.74,0,0,0-4.48-16.39q-4-7-12.73-8.56a6.29,6.29,0,0,0-1.61-.16c-6,0-11.45,4.39-16.39,13.33s-9.85,20.32-14.8,34.19q.45-9.1.68-17.51c.15-5.6.27-9.73.36-12.42a5.94,5.94,0,0,0-.66-2.62c-1.26-2-4-4-8.19-6.14s-7.78-3.23-10.72-3.3c-2.41,0-3.69.68-3.8,2.22,0,.24,0,.63-.1,1.16s-.08,1.39-.08,2.58q.06,8.9.81,24.74,1,27,1.16,39.65c0,4.85,0,8.06-.13,9.6a142.87,142.87,0,0,0-20.78,28.49c-6.37,11.18-9.66,20.81-9.73,28.77-.07,6.75,2.6,11.41,8,13.88a22.56,22.56,0,0,0,5.9.38c8.14-.49,14.75-5.09,19.71-13.6s8.59-19.16,10.87-31.92,4.16-28.12,5.64-46.06a197.28,197.28,0,0,1,7.58-22.49,172,172,0,0,1,10.16-21.67c3.41-6,6.18-8.92,8.34-8.94,1.21,0,2.11,1.07,2.73,3.22A65.52,65.52,0,0,1,358.72,326a82.92,82.92,0,0,1-1.66,20.15q-2,9.6-6.68,14.15a5,5,0,0,1-2.87,1.53,3.29,3.29,0,0,1-3.06-1.93,10.46,10.46,0,0,1-1.28-5.14,15.4,15.4,0,0,1,1.46-7A4.39,4.39,0,0,0,345,346.23Zm-42,84.15c-2.25,9.41-6.43,14.75-12.54,15.93-3-.31-4.56-2.76-4.54-7.32,0-4.32,1.35-9.91,3.93-16.72a142.66,142.66,0,0,1,9.07-19.37c3.45-6.09,6.43-10.23,8.94-12.46Q306.36,416.27,303,430.38Z"/><path d="M405.65,279.76a19.43,19.43,0,0,0-7-1.21,15.41,15.41,0,0,0-5.53,1c-2.6,1-3.85,2.5-3.75,4.48s1.19,3.73,3.29,5.55A19.7,19.7,0,0,0,399,293a20.2,20.2,0,0,0,7.21,1.17,14.14,14.14,0,0,0,4.56-1c2.75-.95,4.07-2.56,3.91-4.8-.12-2-1.24-3.86-3.36-5.53A20.08,20.08,0,0,0,405.65,279.76Z"/><path d="M584.2,292.12a2.53,2.53,0,0,0-1.9-.35c-1.07.21-1.59.73-1.6,1.56-.48,2.27-2.66,6.66-6.55,13.42s-7.36,11.78-10.37,14.85c-.06-4.51-.24-10.35-.47-17.48s-.51-12.48-.73-16.12c-.06-.85-.09-1.7-.15-2.55,0-.16,0-.33-.07-.5-.75-1.42-2.81-2.39-6.19-3a32.69,32.69,0,0,0-10.06-.17c-4.5.62-6.69,1.89-6.58,3.84q.08.52.06,2.88a36,36,0,0,0,.69,6.14,107.56,107.56,0,0,1-1.55,17.57c-1.1,7-2.18,11.72-3.28,14.05-2.17,4.68-4.13,7.24-5.89,7.61-1.35.29-2.51-.81-3.51-3.32a41.56,41.56,0,0,1-2.21-9.93,89.69,89.69,0,0,1-.61-11.2,43.85,43.85,0,0,1,.56-8.15c-.08-1.75-2.32-3.18-6.73-4.4a30.8,30.8,0,0,0-11.81-1.24c-2.66.32-4.13,1.26-4.36,2.82q.23,11,.85,17.26-1.25,3.81-3.16,8.87a138.08,138.08,0,0,1-12.88,25.62c-5.17,8.05-10.45,12.84-15.77,14.09-4.08,1-7.28-1.87-9.53-8.78s-3.8-15.43-4.65-25.51a150.73,150.73,0,0,1-.7-18c6.76-3.5,14.75-11.87,23.8-24.46a205.77,205.77,0,0,0,22.36-39.55c5.86-13.77,8.22-24.81,7.17-33.86-1.39-12-9.08-18.37-23-19.26l-.78-.05c-13.32-1-24,4.31-32.24,17s-14,29-17.18,48.93a254.85,254.85,0,0,0-2.77,58.63c0,.19,0,.36.05.55-.94,3.42-2.06,7.32-3.36,11.73-2.15,7.27-4.3,12.76-6.38,16.41-2.47,4.34-4.59,6.63-6.39,6.82q-2.47.27-3.92-4.63a58.42,58.42,0,0,1-1.92-12.83,174,174,0,0,1-.1-18.19c.28-6.4.71-10.62,1.24-12.7,0-2-2.18-4-6.53-5.95a27.44,27.44,0,0,0-11.75-2.8c-2.69.08-4.18,1-4.48,2.77-.21,9.05-.19,16.35.1,21.87.7,13.9,2.86,24.13,6.52,30.54s9.11,9.44,16.3,9.08l.42-.05a19.57,19.57,0,0,0,12.24-8.17,53.22,53.22,0,0,0,7.6-15.46c.55-1.76,1.13-3.75,1.74-5.9.23,1.57.47,3.08.73,4.45a72.79,72.79,0,0,0,10.93,26.63c5.32,8,13,10.63,22.85,8.08,9.48-3.5,17.66-12,24.45-24.8a179.84,179.84,0,0,0,10.2-23.06,34.71,34.71,0,0,0,2.75,8.51c1.84,3.62,4.29,5.91,7.39,6.88s7.14,1.05,12.16.25l.41-.09c5.94-1.28,10.25-5.2,12.89-11.52a58.87,58.87,0,0,0,4.28-21.36c2.25,11.08,3.67,18.81,4.25,23.28.11,1.46.24,2.92.36,4.39a112.63,112.63,0,0,0-17.81,19.21,102.06,102.06,0,0,0-12.57,21.9c-3,7.27-4.19,13.63-3.61,18.92.47,4.25,2.17,7.53,5.14,9.74s7.28,3.09,12.95,2.57a28.13,28.13,0,0,0,5.63-1.3c7.84-2.64,13.74-8,17.71-15.76a76.72,76.72,0,0,0,7.57-26.7A314.54,314.54,0,0,0,564,327.45a64.45,64.45,0,0,0,10.19-12.15,97.38,97.38,0,0,0,7.43-13.24,47.57,47.57,0,0,0,3.22-8.59C585,292.94,584.79,292.49,584.2,292.12ZM458.15,261.68c2.06-17.33,5.36-32.45,9.92-45.26s10.44-18.78,17.8-18.46a14.79,14.79,0,0,1,10.35,4.72,19.67,19.67,0,0,1,4.54,11.25c.86,7.7-.68,17.17-4.68,28.88a169.85,169.85,0,0,1-17.15,35.37c-7.45,11.92-15.55,21.85-24.26,29.49C454.92,294.44,456.09,279,458.15,261.68Zm88.39,117.71c-1.59,12-5.22,19.37-10.92,21.91q-6.42,2-9.92-.56c-2.33-1.68-3.72-4.5-4.17-8.42-.77-6.62,1.23-15,5.9-24.77a89.88,89.88,0,0,1,20.4-27.11A215.8,215.8,0,0,1,546.54,379.39Z"/><path d="M201.64,201a3.43,3.43,0,0,0,2.06-.64c1.21-.93,1.21-2.49-.14-3.13a1.78,1.78,0,0,0-.93-.43l-1.84-.36a19.55,19.55,0,0,0-2.14-.14c-.64,0-1.42-.14-2.06-.14-1.21-.07-2.21-.21-3.27-.29h-1c-.28,0-.5-.07-.78-.07h-2.28c-.78,0-1.56-.07-2.34-.07s-1.57,0-2.21.07a4.62,4.62,0,0,0-1.42.22,3,3,0,0,0-1.71,1.42,1.88,1.88,0,0,0,1.35,2.77,6.57,6.57,0,0,0,1.35.15c.57,0,1.5,0,2.35.07h-.07a5.5,5.5,0,0,0,1.07.07,16,16,0,0,1,.28,4.05c0,.86-.07,1.78-.14,2.71,0,.42-.07.92-.07,1.35a12.19,12.19,0,0,1-.15,1.63,27.38,27.38,0,0,0-.14,3.42v5.12c0,2,0,4.05-.07,6.12,0,.92-.07,1.77-.07,2.63v6.18a21.81,21.81,0,0,0,.14,3.06v1.36c0,.49.07,1.06.07,1.56v.5a3,3,0,0,0,2.35,2.49l1.28.21,1,.14H192c1.63.71,2.91.22,3.91-1.42a1.61,1.61,0,0,0,.07-1.28,1.82,1.82,0,0,1-.14-.92v-.29c0-.36.07-.57.07-.92,0-.64.07-1.28.07-1.92s-.07-2-.14-2.78v-.64c-.07-1.07-.07-2.13-.07-3.2s-.08-2.06-.08-3.13c0-.64,0-1.71-.07-2.35s-.07-1.42-.07-2.13c0-1.07.07-2.13.14-3.13.08-.85.15-2.35.15-3.2.07-1.57.07-3,.21-4.62.07-.86.07-1.78.07-2.64s0-2.48-.07-3.55-.07-2.7-.14-3.91c1.35-.08,2.77-.15,4.12-.15A12.45,12.45,0,0,1,201.64,201Z"/><path d="M213.94,213.71l-.07.35c-.14,1.07-.22,2.35-.29,3.42s-.14,2-.14,2.91l-.07,1.43-.07,3c0,1,.07,1.92.07,2.92a1.24,1.24,0,0,0,.07.5c.07,1.42.21,2.7.36,4.05.64,8.33,2.91,11.1,11.09,11a4.62,4.62,0,0,0,2.71-.93,6,6,0,0,0,1.7-1.63l.78-.79.72-1a9.07,9.07,0,0,0,1.13-3.2l.15-.29a4,4,0,0,0,.07-.49v.21a11.37,11.37,0,0,0,.92-4.41,4.22,4.22,0,0,1,.14-1.28c0-.21.15-.57.15-.78a19.82,19.82,0,0,0,.28-4.13V224c0-.28.07-.5.07-.78v-1.28c0-1.64,0-3.42-.14-5v.07l-.21-3.27a7.46,7.46,0,0,1-.15-1.14,5.87,5.87,0,0,1-.07-1.07l-.28-4.19a36.81,36.81,0,0,0-.57-4.49,12.6,12.6,0,0,0-1.71-4.05c-1.56-2.06-3.41-3.63-6.4-3.41a5,5,0,0,0-2.91.78,12.06,12.06,0,0,0-3.56,3.63,16.18,16.18,0,0,0-1.42,2.56,29.58,29.58,0,0,0-1.14,3.41c-.36,1.71-.64,3.56-.93,5.34a.76.76,0,0,1-.07.35v-.07C214.08,212,214,212.85,213.94,213.71Zm5.12.78.21-1.28a37.63,37.63,0,0,1,.57-4.91v.07a23,23,0,0,1,1.71-4.62h-.07c.64-1.07,1.14-1.92,1.56-2.56l.57-.78c.07-.07.22-.15.36-.29s.07-.07.14-.07c.21.21.5.43.57.64l.07.07a26.47,26.47,0,0,1,.5,2.85c.14,1.21.21,2.35.28,3.55l.14,1.92c0,.29.08.65.08,1v3.42c-.08,1.13-.15,2.27-.15,3.34,0,.35-.07.71-.07,1.14a12.63,12.63,0,0,0,.07,2.84,3.4,3.4,0,0,1,0,1.49v-.14a25.73,25.73,0,0,0-.28,4.77v1.85a45.25,45.25,0,0,1-.93,7.47l-.42,1.56-.14.36a.53.53,0,0,1-.29.35h.07c-1.49.57-3.7-.85-4.19-2.2,0-.07-.08-.15-.08-.22a8.76,8.76,0,0,1-.28-1.56l-.07-1.21a20.14,20.14,0,0,1-.21-3.5,2.61,2.61,0,0,0,0-1.27,2.8,2.8,0,0,1-.07-1.35,8.29,8.29,0,0,0,.14-1.49c0-1.35,0-2.7-.07-4.06a16.76,16.76,0,0,1,.07-2.63l.07-1.06a9.91,9.91,0,0,0-.29-1.21l.29.57A9.74,9.74,0,0,1,219.06,214.49Z"/><path d="M267.35,213.71l-.07.35c-.15,1.07-.22,2.35-.29,3.42s-.14,2-.14,2.91l-.07,1.43-.07,3c0,1,.07,1.92.07,2.92a1.24,1.24,0,0,0,.07.5c.07,1.42.21,2.7.36,4.05.63,8.33,2.91,11.1,11.09,11a4.57,4.57,0,0,0,2.7-.93,6.06,6.06,0,0,0,1.71-1.63l.78-.79.72-1a9.07,9.07,0,0,0,1.13-3.2l.14-.29a3.49,3.49,0,0,0,.08-.49v.21a11.37,11.37,0,0,0,.92-4.41,4.22,4.22,0,0,1,.14-1.28c0-.21.15-.57.15-.78a19.82,19.82,0,0,0,.28-4.13V224c0-.28.07-.5.07-.78v-1.28c0-1.64,0-3.42-.14-5v.07l-.21-3.27a6.39,6.39,0,0,1-.15-1.14,5.87,5.87,0,0,1-.07-1.07l-.28-4.19a38.88,38.88,0,0,0-.57-4.49A12.83,12.83,0,0,0,284,198.7c-1.56-2.06-3.41-3.63-6.4-3.41a5.07,5.07,0,0,0-2.92.78,12.15,12.15,0,0,0-3.55,3.63,17,17,0,0,0-1.43,2.56,31.69,31.69,0,0,0-1.13,3.41c-.36,1.71-.64,3.56-.93,5.34a.76.76,0,0,1-.07.35v-.07C267.49,212,267.42,212.85,267.35,213.71Zm5.12.78.21-1.28a37.63,37.63,0,0,1,.57-4.91v.07a22.42,22.42,0,0,1,1.71-4.62h-.07c.64-1.07,1.13-1.92,1.56-2.56l.57-.78c.07-.07.21-.15.36-.29s.07-.07.14-.07c.21.21.5.43.57.64l.07.07a26.47,26.47,0,0,1,.5,2.85c.14,1.21.21,2.35.28,3.55l.14,1.92c0,.29.07.65.07,1v3.42c-.07,1.13-.14,2.27-.14,3.34,0,.35-.07.71-.07,1.14a12.63,12.63,0,0,0,.07,2.84,3.56,3.56,0,0,1,0,1.49v-.14a25.73,25.73,0,0,0-.28,4.77v1.85a45.25,45.25,0,0,1-.93,7.47l-.42,1.56-.15.36a.49.49,0,0,1-.28.35H277c-1.49.57-3.7-.85-4.2-2.2,0-.07-.07-.15-.07-.22a8.76,8.76,0,0,1-.28-1.56l-.07-1.21a21.16,21.16,0,0,1-.22-3.5,2.49,2.49,0,0,0,0-1.27,3.08,3.08,0,0,1-.07-1.35,8.29,8.29,0,0,0,.14-1.49c0-1.35,0-2.7-.07-4.06a16.76,16.76,0,0,1,.07-2.63l.08-1.06a9.91,9.91,0,0,0-.29-1.21l.29.57A9.41,9.41,0,0,1,272.47,214.49Z"/><path d="M300.34,222.1v1.07c.08,1.78.15,3.63.15,5.47a20.55,20.55,0,0,1,.07,2.07,20.27,20.27,0,0,0,.07,2.13l.14,1.92a17.21,17.21,0,0,0,1.64,6.4l-.07-.07a3.66,3.66,0,0,0,3.55,2.35,10,10,0,0,0,2.07-.07,3.51,3.51,0,0,0,2.2-1.14,10.68,10.68,0,0,0,1.49-2,4,4,0,0,1,.65-1.14l.49-.85-.14.14a6.82,6.82,0,0,0,.36-.71c.21-.71.35-1.21.49-1.57l.15-.28c.71-2.49,1.56-5.34,2.27-8a9.62,9.62,0,0,0,.15,1.57l.14,1.7.07,1.21c.07,1.43.21,2.64.35,3.77a15.25,15.25,0,0,0,1.71,4.49v-.08A5.51,5.51,0,0,0,321,242.8l-.07-.07a3.54,3.54,0,0,0,3.35-.29l-.08.07a1.65,1.65,0,0,0,.79-2.63l.07.07-.29-.49a.26.26,0,0,1-.14-.22l-.14-1.13a12.53,12.53,0,0,1-.36-2.57c-.07-1.77-.21-4-.35-5.83,0-.42-.08-.92-.08-1.35v-7.11c0-1.57-.14-3.35-.28-4.91s-.14-3-.14-4.55c0-.78-.07-1.64-.07-2.42v-1.64a5.68,5.68,0,0,1,.07-1.49,23.9,23.9,0,0,0,.14-2.49,23.58,23.58,0,0,0-.28-3.27,7.71,7.71,0,0,0-.5-1.92,3.78,3.78,0,0,0-3.91-2.49c-.29,0-.5.07-.71.07h-.65a2.57,2.57,0,0,0-2.27,1.42,5.28,5.28,0,0,0-.57,3.13,8.29,8.29,0,0,1,.07,1.28c0,2.06,0,4.06-.14,6.19a51.22,51.22,0,0,1-1.07,9,37.57,37.57,0,0,0-.85,3.77c-.21,1.21-.5,2.42-.71,3.56-.43,1.78-.79,3.41-1.35,5.19-.22.78-.5,1.57-.57,1.92l.07-.07c-.22.78-.5,1.71-.71,2.56l-.15.29.08-.29-.57,1.35-.29-3.84c-.07-.78-.07-1.42-.07-2.06,0-.36-.07-.78-.07-1.07a5.14,5.14,0,0,1,.14-2.06v-.36l-.21-6.4c0-.21-.07-.35-.07-.57v-.56a40.85,40.85,0,0,1-.22-4.27c.07-1.5.15-3,.15-4.48s-.08-3.21-.22-4.63c0-.35-.07-.5-.07-.85a13.76,13.76,0,0,0-.21-2.78l.07.08a5,5,0,0,1-.14-1.36l.14-.21v-.21c.71-1.42.21-2.28-1.64-2.92h-.42c-.15,0-.29-.07-.43-.07H303c-1.71.14-2.21.71-2.42,2.35l-.07.57v1.77a12.32,12.32,0,0,0,.07,1.64v2.49c0,.64-.07,1.21-.07,1.85,0,.92,0,1.85-.07,2.77s-.08,1.85-.08,2.78c0,1.56.08,3.48.22,5.05v.43Z"/><path d="M337.25,208.52v7c0,1.14-.07,2.27-.07,3.41v6.76c-.07.64-.07,1.56-.07,2.2S337,229.36,337,230v7.68c0,.85.07,1.71.14,2.42a2.9,2.9,0,0,0,2.14,2.49h-.07a9.12,9.12,0,0,0,3.41.42c1.78-.14,2.42-.64,2.92-2.63V240a52.35,52.35,0,0,0,.21-5.77v-4.55a1.25,1.25,0,0,0,.28.64c.86,1.35,1.57,2.78,2.42,4.2v-.07l.43.92-.07-.21.42.85a34.26,34.26,0,0,0,2.21,3.84,16,16,0,0,0,1.85,2.28,5.75,5.75,0,0,0,4.55,1.56c1.64-.28,2.42-.85,2.56-2.63a7.81,7.81,0,0,0,.07-1.35v-.14a2,2,0,0,0-3.2-1.42l-.14.14-.29-.5c-2.06-3.56-4.19-7.47-6.4-12.09a14.67,14.67,0,0,1-.78-1.85h.85a8.41,8.41,0,0,0,1.36-.07,7.07,7.07,0,0,0,4.69-2.92,22.7,22.7,0,0,0,2.56-5.12,15.46,15.46,0,0,0,.78-3.63c.08-.78.15-1.78.15-2.7l-.07-2.63a5.16,5.16,0,0,0-.29-1.71l-.21-.71c-.22-.5-.36-1.14-.79-2.06a24.26,24.26,0,0,0-1.77-2.49l-.43-.5a8.12,8.12,0,0,0-2.56-2,4.91,4.91,0,0,0-3.42-.71,9.7,9.7,0,0,0-3.48,1.13l-1.28.79c-.07,0-.14.07-.21.07-.22-.5-.5-1-.72-1.57a2.66,2.66,0,0,0-1.21-1.28l.08.07a4.88,4.88,0,0,0-4.06-.71,1,1,0,0,1-.5.15c-1.35.35-2,1-1.85,2.48a12.45,12.45,0,0,1,.15,1.57c0,1.78-.07,3.56-.15,5.33C337.32,206,337.25,207.31,337.25,208.52Zm8.68,7.18a19.58,19.58,0,0,0,.07-2.06,4.49,4.49,0,0,1,.07-.93v-1.42c0-.36.07-.78.07-1.21a14.51,14.51,0,0,1,.15-1.71,8.2,8.2,0,0,0-.22-2.91,1.19,1.19,0,0,1,.57-1.07l-.07.07,1.21-.92a4,4,0,0,1,2.2-.93.87.87,0,0,1,.93.36h-.07l.35.78.79,1.35a3.8,3.8,0,0,1,.14.78c.07.71.14,1.43.14,1.92s-.07,1.43-.07,2.07a2.26,2.26,0,0,1-.07.64,17.35,17.35,0,0,1-.43,4.76A11.34,11.34,0,0,1,350,219.4h.15c-.07,0-.07.07-.15.07h-.49a2,2,0,0,1-1.92-.36c-.5-.35-1-.78-1.57-1.21-.07-.07-.07-.28-.07-.56Z"/><path d="M211.13,463.6a1,1,0,0,0,.18,0l-.09-.22a.53.53,0,0,0-.15.11S211.1,463.59,211.13,463.6Z"/><path d="M376.16,216.64A180.23,180.23,0,0,1,415,212.7c3.2,0,3.2-4.95,0-5a186.06,186.06,0,0,0-40.2,4.12C371.72,212.52,373,217.31,376.16,216.64Z"/><path d="M423.13,230.59a257.69,257.69,0,0,0-44.64-5.34c-3.2-.1-3.2,4.87,0,5a249.49,249.49,0,0,1,43.32,5.16C424.93,236,426.27,231.25,423.13,230.59Z"/><path d="M173.48,220.83c3.13.54,4.47-4.25,1.32-4.79a192.5,192.5,0,0,0-47.52-2.37c-3.17.23-3.2,5.2,0,5A187.67,187.67,0,0,1,173.48,220.83Z"/><path d="M110.35,247.47l67.25-11.8c3.14-.55,1.81-5.34-1.32-4.79L109,242.68C105.88,243.23,107.22,248,110.35,247.47Z"/><path d="M19.16,38C31.13,43.17,43,48.55,55,53.77A213.22,213.22,0,0,0,22.12,106c-.94,2.14,1.07,4.76,3.4,3.4,24-14,52.85-15.15,76.86-28.9-.18,8.16-.35,16.32-.45,24.49a2.37,2.37,0,0,0,2.88,2.37,2.48,2.48,0,0,0,1,.27c32.68,2.29,65.46,4.67,97.69,10.84s61.83,17.73,92,30.44a338.76,338.76,0,0,0,88,24.24c30.75,4.06,61.79,4.89,92.75,5.7a2.39,2.39,0,0,0,1.2-.27,1.91,1.91,0,0,0,1.28-2.21c-.47-4-1.08-7.93-1.77-11.87-.86-5.27-1.74-10.53-2.42-15.82,37.64-.3,70.59-16.79,98.27-41.78a2.11,2.11,0,0,0,.67-2.31,2,2,0,0,0-1.77-1.85c-15.9-3-31.9-5.59-47.82-8.56A639.61,639.61,0,0,0,565.28,36.4a1.87,1.87,0,0,0,.53-2.2A2.62,2.62,0,0,0,561.74,33l-.14.08C523.18,63.17,471.35,74,423.63,65.6a2.7,2.7,0,0,0-1.14,0,2,2,0,0,0-2,2.36c0,.12,0,.25,0,.37a1.73,1.73,0,0,0,0,.32,110.9,110.9,0,0,1-.78,27.24c-18.37-1.32-36.69-3.15-54.86-6.22-31.31-5.3-60.2-15.12-88.66-29.09-26.84-13.16-53.94-20.83-83.56-24.91-10.39-1.43-20.86-2.55-31.34-3.11,0-.09,0-.18,0-.28-.35-9.92-.09-19.85-.43-29.77a2.46,2.46,0,0,0-.56-1.5,2.13,2.13,0,0,0-2.15-1A283.4,283.4,0,0,0,19.16,33.69a2.16,2.16,0,0,0-1.23,2A1.92,1.92,0,0,0,19.16,38Zm10.43,63.71A208.29,208.29,0,0,1,60.76,54.61c.94-1.07,1.07-3.23-.5-3.91-11.4-4.94-22.73-10.05-34.11-15A278.85,278.85,0,0,1,145.66,5.09c-15.83,7.9-30.23,20.68-41.73,33.17a.76.76,0,0,0-.11.14A2.31,2.31,0,0,0,103.2,40c-.14,11.56-.41,23.11-.68,34.67C80.16,88.6,53.05,90.4,29.59,101.69Zm524.5-57.22a595.88,595.88,0,0,1-36.5,49.66,2.6,2.6,0,0,0-.55,1.2,2.62,2.62,0,0,0,2.63,3.14c15.26,2.9,30.61,5.37,45.89,8.21-26.37,22.65-57.41,37.3-92.82,37.1-3.34-15-7-29.89-8.8-45.11a1.55,1.55,0,0,0-.07-.31,2.3,2.3,0,0,0-1.16-1.84,207.87,207.87,0,0,1-33.15-25C472.64,77.37,517.72,68.38,554.09,44.47ZM201.47,42c15.36,2.4,30.62,5.69,45.26,11,14.83,5.33,28.55,13.07,42.84,19.6,53.18,24.31,112.22,27.71,169.75,30.67h.25c2.94,20.64,8.86,40.78,12.43,61.32.5,3.09,1,6.19,1.4,9.3-30.86-.81-61.83-1.69-92.44-6-33-4.62-63.18-14.78-93.7-27.8-28.54-12.17-57.2-21.89-87.81-27.35s-61.57-7.78-92.51-10c.27-20.55,1-41.1,1.21-61.65a3.26,3.26,0,0,0,.41,0C139.12,34.41,170.84,37.18,201.47,42Z"/><path d="M154.64,98.13a5.18,5.18,0,0,0,2.75,1.57c1.55.26,3.1-.44,4.32-2.54v.08c.36-.73.79-1.38,1.06-2l-.09.06a8.87,8.87,0,0,1,1.46-2.54,1.49,1.49,0,0,0,.56-1l0-.15L165.78,89v.08c1.26-2.81,2.45-5.63,3.71-8.44l.83-2.09-.52,7.86a73.77,73.77,0,0,0-.31,9l.36,2.6a7.91,7.91,0,0,0,.46,1.51,4,4,0,0,0,2.93,2,11.27,11.27,0,0,0,2.15,0h1.35a4.66,4.66,0,0,0,2.16-1,14.13,14.13,0,0,0,3.38-4.05l0,.08a41.55,41.55,0,0,0,2.46-5.64,37.36,37.36,0,0,1,1.23-4.09,9,9,0,0,1,.35-1.13,5.14,5.14,0,0,0,.36-1.21c.27-1.15.49-2.46.7-3.7l1.9-11.37.25-1.47a12.55,12.55,0,0,1,.43-1.68l.15-.85a20.84,20.84,0,0,1,.67-3.07,3.34,3.34,0,0,0,.31-.9l.31-1.86.23-1.87c.31-1.38.57-2.92.8-4.32,0-.23,0-.4,0-.63l.1-.62a.6.6,0,0,1,.12-.22A1.51,1.51,0,0,0,192,50l-.81-.38a2.75,2.75,0,0,0-3.83,1.51l.09-.06a9,9,0,0,0-.29,1.3l-.46,2.71c-.12.77-.4,1.44-.52,2.22a16,16,0,0,0-.52,2.14l-1,6c-.08.46-.22.84-.3,1.3l-.19,1.16-2.35,11.22-.12.7a16.22,16.22,0,0,0-.38,1.84c-.11.62-.28,1.15-.38,1.76l0-.15-.58,2c0,.23-.31.9-.35,1.13a20.51,20.51,0,0,1-2,5.47l.09-.06-.55.94,0-.71c0-2.22.14-4.19.31-6.15l.22-2.75a15.58,15.58,0,0,1,.24-1.94c.34-2.49.55-5.16.63-7.53,0-.64.09-1.5.16-2a13.87,13.87,0,0,0,.22-2.75,9,9,0,0,0-.72-3.78l.07.09a4.22,4.22,0,0,0-3.59-2.82,3.55,3.55,0,0,0-4,1.79l-.69,1.24,0-.08-.61,1.25c-1,1.89-1.95,4.05-2.93,6.11l-1.21,2.5c-.37.81-.71,1.87-.71,1.87l-2.88,6.28-1.2,2.9-.26.59.27-1.62c.16-.93.39-1.85.55-2.78s.23-1.87.4-2.87l.18-1.56c.09-1,.26-2,.44-3.11.23-1.87.55-3.8.86-5.66s.55-3.72.87-5.66c.23-1.39.46-3.26.62-4.66.13-.78.15-1.41.28-2.18.06-.31,0-.71.1-1a4.37,4.37,0,0,1,.1-1.1c0-.78.17-1.48.28-2.18s.19-1.56.32-2.41c.2-2.11-.65-3.69-3-4.15-.31,0-.63,0-.86-.06a3.26,3.26,0,0,1-.71,0c-2.24-.38-2.61-.12-3.33,2.3l-.45,2.71c-.14.85-.36,1.69-.49,2.46-.36,2.17-.72,4.34-1.18,6.57l-1,6.26c-.21,1.24-.34,2.49-.56,3.8l-1.26,7.59c-.13.77-.34,1.53-.47,2.3a46.4,46.4,0,0,0-.56,4.76l0,1.75c0,1,0,1.76-.05,2.7a13.12,13.12,0,0,0,.46,4.85A9.07,9.07,0,0,0,154.64,98.13Zm21.76-3.21a.07.07,0,0,1,.09-.06,2.69,2.69,0,0,0-.14.37Z"/><path d="M203.6,107.28c1.31.25,2.7.51,3.8.63a22.91,22.91,0,0,0,3.07.36,7.86,7.86,0,0,1,1.65.17l4.87,1.22a2,2,0,0,0,2.47-2.46,2.44,2.44,0,0,0-1.63-2.19,10,10,0,0,0-1.43-.44c-.84-.2-2.13-.53-3-.66-1.06-.26-2.07-.44-3.16-.62l-2.49-.38L208,102c.27-1.06.55-2.2.76-3.36.25-1.32.57-2.61.91-4,.31-1.54.67-3,1.05-4.51l.36-2.09c.23-1.24.45-2.47.76-3.69.13-.53.39-1.28.58-2l.1-.38,2.09.36a30,30,0,0,1,4.47.88,7.79,7.79,0,0,0,1.68.09,2,2,0,0,0,1.57-2.43,2.76,2.76,0,0,0-2.19-2.25c-.23-.06-.39,0-.63-.07l-.37-.1a31.41,31.41,0,0,0-5.33-1l.23-.92c.55-1.88,1.12-3.84,1.53-5.84.31-1.54.73-2.89,1.18-4.39l.48-1.58a23.9,23.9,0,0,1,1.06-3l.1-.38a27.1,27.1,0,0,0,3.67,1.16c1.39.27,2.91.65,4.35,1,.16,0,.25,0,.4,0a3.76,3.76,0,0,0,1.26.15,2,2,0,0,0,1.82-2.78,3.43,3.43,0,0,0-2.15-2.07l-1.67-.42c-.53-.13-1.12-.36-1.66-.49l-5.63-1.41L217,56.07a9.56,9.56,0,0,0-2.26-.32l-.95-.07A2.1,2.1,0,0,0,211.15,57l-.54,1.16-1,2.42,0-.08a40.07,40.07,0,0,0-1.52,4.47c-.1.38-.29.82-.38,1.2L206,73.2c-.19.76-.43,1.42-.63,2.18L203.44,83c-.25,1-.57,2-.82,3l-1.33,5.33c-.19.76-.28,1.46-.45,2.15a74.78,74.78,0,0,0-1.3,7.44l-.26,1.71a3.15,3.15,0,0,0,1.05,2.93A6.34,6.34,0,0,0,203.6,107.28Z"/><path d="M212.89,82l-.38-.1C212.49,82,212.56,82,212.89,82Z"/><path d="M233.91,114.65c.08,0,.28.17.63.61l.08,0a6.62,6.62,0,0,0,2.17,1.19c1.14.28,2.19.62,3.39,1l8.51,2.72a2.72,2.72,0,0,0,3.12-1,2.43,2.43,0,0,0,.24-2.31c-.21-.89-1-1.3-1.51-1.72-1.25-.48-2.35-.91-3.32-1.22l-5.6-1.79L243,107c.52-1.65,1.07-3.12,1.67-4.74l.2-.6c.24-.74.42-1.59.66-2.34.36-1.12.79-2.21,1.22-3.31l.48-1.5c.48-1.24.91-2.59,1.17-3.41.1-.3.37-.62.46-.92.37-.87.75-1.82,1-2.49.36-1.12.62-2.19,1-3.39s.69-2.42,1-3.54a3.48,3.48,0,0,1,.19-.84l.35-1.12a27.78,27.78,0,0,1,.93-3.41c.14-.45.23-1,.38-1.44.38-1.2.83-2.87,1.13-4.09a4.21,4.21,0,0,0-.25-2.8A4.62,4.62,0,0,0,251,64.6l-1.66-.2c-1.22-.06-1.86.14-2.27,1.17-.24.25-.19.35-.26.57a14.68,14.68,0,0,1-.68,1.6c-.43,1.09-.94,2.41-1.32,3.61-.23.75-.52,1.64-.64,2.27,0,.14-.12.12-.17.27l-.12.37c-.19.6-.38.95-.55,1.47a14.41,14.41,0,0,0-.6,1.62l-2.14,6.73c-.27.82-.62,1.94-.79,2.71l-4.55,14.27c-.89,2.77-1.82,5.68-2.5,8.59a12.58,12.58,0,0,0-.17,2.58A3,3,0,0,0,233.91,114.65Zm7.71-2.48-.75-.24C241.42,112,241.57,112.07,241.62,112.17Z"/><path d="M290.05,87.89l0-.1s0-.08.05-.12Z"/><path d="M266.2,125.8a7.9,7.9,0,0,1,1.22,1l-.06,0a2.37,2.37,0,0,0,2.06,1l-.07,0a2.45,2.45,0,0,1,.76.21l1.61.61a5.41,5.41,0,0,0,3.3.17l1.2-.3-.1,0a8,8,0,0,0,1.61-.48,9.61,9.61,0,0,0,4-2.41l.65-.6-.16.2a23,23,0,0,0,4.25-4.76,10.69,10.69,0,0,0,1-1.8,4.77,4.77,0,0,0,.4-1.69l0,.07a1.81,1.81,0,0,0-.47-1.61,2.25,2.25,0,0,0-2.77-.22l.1,0a2.44,2.44,0,0,0-.86.93l-.58.62a26.23,26.23,0,0,1-4.36,4.63l-.31.38-.52.48a4.37,4.37,0,0,1-1.89,1.21l-2.61.68a2.16,2.16,0,0,1-.7.07,5.23,5.23,0,0,1-.13-2.06l0,.1a33,33,0,0,1,1.36-5.78c.32-1,.58-2,1-3s.71-2.08,1.11-3.11l3-7.77c.31-.81.57-1.71.9-2.59.45-1.17.85-2.45,1.4-3.67a37.27,37.27,0,0,1,3.51-6.8,12.62,12.62,0,0,1,3.75-4.11l-.2.09,1.27-.69,1.07-.6c0,.18.11.38.08.45l0,.32a3.21,3.21,0,0,1-.39,2.12,2,2,0,0,0-.47.8,2.48,2.48,0,0,0,.86,3,2,2,0,0,0,3.06-.34,5.48,5.48,0,0,0,1.44-2.22,6.29,6.29,0,0,0,.41-3.29l0,.08a7.44,7.44,0,0,0-5.44-6.44l.08,0a1.89,1.89,0,0,1-.54-.12c-2.27-.45-2.34-.48-4.8.26a12.66,12.66,0,0,0-3.89,2l.1,0a8.28,8.28,0,0,0-1.86,1.81l-1.22,1.64a5.65,5.65,0,0,1-.73,1.06,40.69,40.69,0,0,0-4.19,7.46c-.52,1.15-1.07,2.37-1.52,3.54l-1.46,3.39-.25.66a1.1,1.1,0,0,1-.27.48l.06-.14c-.35.7-.69,1.58-1,2.46s-.62,1.61-.86,2.45l0-.08c-.7,2.08-1.49,4.14-2.27,6.19-.17.44-.26.91-.46,1.42-.33.88-.65,1.93-.91,2.84a13.74,13.74,0,0,0-.5,5.93A6.67,6.67,0,0,0,266.2,125.8Z"/><path d="M305.39,142.45a5.14,5.14,0,0,0,3.14.3,6.79,6.79,0,0,0,2.46-.86l1.14-.43,1.17-.68a10,10,0,0,0,2.6-2.69l.27-.22a4.55,4.55,0,0,0,.3-.47l-.1.22a12.67,12.67,0,0,0,2.94-4,4.38,4.38,0,0,1,.73-1.22c.1-.21.4-.51.5-.72a21,21,0,0,0,2.16-4l.3-.64c.12-.29.29-.47.42-.76L324,125c.75-1.64,1.56-3.43,2.17-5.14l0,.07,1.28-3.38a7.39,7.39,0,0,1,.38-1.2,6.46,6.46,0,0,1,.41-1.11l1.63-4.34a40.21,40.21,0,0,0,1.47-4.76,14,14,0,0,0,.14-4.84c-.63-2.79-1.78-5.2-4.87-6.35a5.67,5.67,0,0,0-3.29-.54,13.37,13.37,0,0,0-5.22,2,19,19,0,0,0-2.6,1.92,35.45,35.45,0,0,0-2.7,2.91c-1.13,1.55-2.26,3.27-3.36,4.93a.85.85,0,0,1-.23.33l0-.08c-.39.68-.85,1.51-1.31,2.33l-.24.33c-.63,1-1.28,2.26-1.84,3.3s-1.05,1.93-1.47,2.86l-.72,1.39-1.43,3c-.46,1-.81,2-1.26,3a1.36,1.36,0,0,0-.16.53c-.57,1.46-1,2.81-1.49,4.23C296.13,135,297.15,138.79,305.39,142.45Zm-2.29-9.74a9.41,9.41,0,0,1,.43-1.7l.48-1.25a21.92,21.92,0,0,1,1.43-3.74l-.06.15a2.75,2.75,0,0,0,.59-1.29,3.3,3.3,0,0,1,.54-1.39,8.81,8.81,0,0,0,.82-1.43c.62-1.36,1.23-2.72,1.78-4.11a18.93,18.93,0,0,1,1.27-2.61l.56-1a10.62,10.62,0,0,0,.26-1.35.27.27,0,0,1,0-.17l0,.87a10.87,10.87,0,0,1,1.44-2.79l.8-1.18a41,41,0,0,1,2.81-4.67l0,.07a25,25,0,0,1,3.83-3.86l-.08,0c1.13-.78,2-1.41,2.74-1.86l.93-.53c.1,0,.28,0,.49-.12,0-.07.1,0,.17,0a2.42,2.42,0,0,1,.28.9l0,.11a28,28,0,0,1-.79,3.08c-.42,1.28-.86,2.45-1.34,3.7l-.74,2c-.12.29-.21.68-.38,1l-.55,1.22-1,2.21c-.59,1.11-1.19,2.22-1.67,3.29-.16.36-.4.68-.59,1.11a13.78,13.78,0,0,0-1.22,2.89,4,4,0,0,1-.69,1.5l.07-.14a27.71,27.71,0,0,0-2.46,4.65l-.85,1.86a49.51,49.51,0,0,1-4.33,7.07L307,136.53l-.3.29a.57.57,0,0,1-.45.23l.07,0c-1.76-.11-3.32-2.54-3.21-4.13C303.11,132.88,303.07,132.78,303.1,132.71Z"/><path d="M338.82,152.87a4.3,4.3,0,0,0,3.27,0A2.59,2.59,0,0,0,343,152a1.34,1.34,0,0,0,.49-.95.36.36,0,0,1,.11-.22l0,.15.52-1.66.59-1.57.71-2.74c.24-.91.65-1.88.88-2.79l1.05-3.32,1.88-5.33.06-.39a12.6,12.6,0,0,0,1.44-3.25,1.51,1.51,0,0,1,.19-.61l.68-2.11c.43-1.12.81-2.4,1.31-3.43l0-.16c.95-2.3,1.79-4.38,2.32-6.12l.08-.47a1.4,1.4,0,0,0,.45-.71l.3-.83a2.11,2.11,0,0,0,0,.71c-.32,3.21-.58,6.59-.59,9.85a8.71,8.71,0,0,0,.34,3.08l0-.32.19.75v-.08a3.07,3.07,0,0,0,2.46,2.81c1.83.48,2.59.21,3.45-1.55s1.57-3.07,2.6-4.89a2.65,2.65,0,0,1,.57-1l.66-1.08.27-.59.43-.64.57-1,0,.08.61-1.17.66-1.08a35.39,35.39,0,0,0-.77,4c-.25,1.47-.54,3.57-.7,5-.16.92-.22,1.71-.36,2.56l-1,6.83c-.33,2.33-.63,4.59-1,7l-.17,1-.28,1.14a41,41,0,0,0-.74,6.16c-.06.31,0,.48-.05.71a3.51,3.51,0,0,0,.25,1.8,2.75,2.75,0,0,0,3.13,1.73c.49-.08,1.35,0,2.47-.05,2.06,0,2.35-.23,2.85-2.22a2.3,2.3,0,0,1,.16-.45c.11-1.09.31-2.25.51-3.41l.54-3.17A35.25,35.25,0,0,0,374,143l.41-3.28c.11-1.09.22-2.19.41-3.27.14-.85.19-1.56.32-2.33.25-1.47.47-3.18.72-4.65a34.71,34.71,0,0,1,.53-4c.32-1.86.78-4.09,1.18-5.93.24-.92.32-1.86.48-2.79l.24-1.39.12-.69.13-.78c.07-1.34.17-2.83.16-4.11a4.42,4.42,0,0,0-3.32-4.31,7.37,7.37,0,0,0-1.38-.32c-.46-.08-.84-.22-1.22-.29a2.65,2.65,0,0,0-1.91.47,2.29,2.29,0,0,0-.64.92.17.17,0,0,1-.18.13l.35-.66a2.71,2.71,0,0,0-.89,1l.08-.06-1.92,2.85c-.44.72-.73,1.47-1.07,2s-.78,1.3-1,1.89v-.07l-1,1.58c0-.16,0-.48.06-.79,0-1.12-.18-2.66-.22-3.78l-.12-3.44a6.14,6.14,0,0,0-1.42-3.35,3.59,3.59,0,0,0-2-1.06l-2.56-.44a1.61,1.61,0,0,0-.72,0c-.08,0-.24,0-.4,0-.9.16-1.69.58-1.82,1.36l-.87,2.24-2,5.06L351.6,113l-.35.66c0-.08.13-.3.17-.53l.24-1.39c0-.31.19-.68.23-.91l.26-1.47c.07-.87.27-2,.41-2.87s.27-2,.33-2.81a3.36,3.36,0,0,0-2-3.37,12.73,12.73,0,0,0-2.69-1,2.86,2.86,0,0,0-2.78,1l-.27,1.07-.07.39c-.34,1.53-.7,3.14-1,4.76l-.22,1.32c-.16.93-.25,1.86-.48,2.78-.3,1.22-.51,2.46-.71,3.62-.1.62-.38,1.76-.49,2.38l-.56,3.25c-.19,1.08-.42,2-.69,3.06-.54,2.22-1.09,4.51-1.48,6.75l-.4,2.32c-.25,1.47-.6,3-.77,4.48-.15.85-.31,2.26-.55,3.65-.42,2.39-.82,5.19-1,6.59a11,11,0,0,0,.14,3.77A2.69,2.69,0,0,0,338.82,152.87Z"/><path d="M399.94,135.1l-.39,0C399.54,135.12,399.62,135.13,399.94,135.1Z"/><path d="M390.15,159.83a6.38,6.38,0,0,0,3.45,1.41c1.33.09,2.74.19,3.85.18a22.72,22.72,0,0,0,3.09,0,7.77,7.77,0,0,1,1.66,0l5,.65a2,2,0,0,0,2.18-2.72,2.44,2.44,0,0,0-1.88-2,8.75,8.75,0,0,0-1.47-.27c-.85-.11-2.17-.28-3-.32-1.09-.14-2.11-.19-3.21-.26l-2.52-.09.13-.93c.14-1.09.29-2.26.37-3.43.09-1.34.26-2.66.45-4.06.12-1.56.31-3,.52-4.59l.12-2.13c.08-1.25.16-2.5.33-3.75.07-.54.25-1.31.35-2.08l.05-.39,2.12.11a30.36,30.36,0,0,1,4.54.36,7.18,7.18,0,0,0,1.67-.1,2,2,0,0,0,1.29-2.6,2.77,2.77,0,0,0-2.43-2c-.23,0-.4,0-.63,0l-.39-.05a31,31,0,0,0-5.4-.39l.12-.93c.33-1.94.67-4,.86-6A43.19,43.19,0,0,1,402,119l.29-1.62a24.8,24.8,0,0,1,.72-3.07l0-.39a27.33,27.33,0,0,0,3.78.73c1.41.11,3,.31,4.44.5.16,0,.25,0,.4,0a3.39,3.39,0,0,0,1.27,0,2,2,0,0,0,1.49-3,3.49,3.49,0,0,0-2.37-1.81l-1.71-.22c-.55-.07-1.16-.23-1.7-.3l-5.76-.75-1.79-.24a9.93,9.93,0,0,0-2.28-.06l-1,0a2.11,2.11,0,0,0-2.49,1.58l-.4,1.21-.72,2.52V114a39.56,39.56,0,0,0-1,4.61c-.05.39-.19.85-.24,1.24l-.94,7.23c-.11.77-.28,1.46-.38,2.24l-1,7.78c-.13,1-.34,2-.48,3l-.71,5.44c-.1.78-.11,1.49-.2,2.19a72,72,0,0,0-.43,7.54l-.07,1.73A3.14,3.14,0,0,0,390.15,159.83Z"/><path d="M396.6,619.21h0Z"/><path d="M464.48,606.24c7.13-2.35,13-6.93,18.38-12,3.5-3.28,13.8-11,11-16.84a1,1,0,0,0-.9-.51c-3.57-.22-3.9,1.31-6.5,3.82a102.82,102.82,0,0,1-20.68,15.5c-6.33,3.55-10.26,8.08-16.17,12.2-6.11,4.26-13.12,5.42-19.71,7.87,1.79-3.39,2.58-8.38,3.62-10.23,3.42-6,10.07-8.4,15-12.85,1.58-1.43,4.45-3.6,3.9-5.94-.11-.51-.88-.51-1.26-.49-5.72.33-14.94,4.81-19.55,8.72a20.29,20.29,0,0,0-6.52,10.27c-2,7.43,1.79,10.43-10.42,14.64-2.58.89-5.89.87-8.57,1.14-2.26.22-9.45,0-13,.6,1.47-1.12,3.25-2.73,3.47-2.93,2.4-2.24,4-5.31,6.32-7.67a28,28,0,0,1,11.61-7.32,20.72,20.72,0,0,0,4.45-1.74c1.49-1,2.68-1,2.64-2.86,0-.4-.2-.57-.58-.68-6.06-1.82-16.07,2.3-21.4,5.18a24.69,24.69,0,0,0-7.69,6.31c-1.34,1.74-2,4-3.35,5.7-3.24,4-8,4.89-13,5.07-4.16.15-8.52-1.19-12.58-1.93-.8-.15-4.06-.55-6-.78,2.45-.55,7.1-3.36,7.84-3.93,3-2.33,3.91-4.23,5-7.78,1.66-5.41,2.35-8,6.18-11.76a27.85,27.85,0,0,0,3.3-3.17c.3-.4-.08-.84-.48-.92-7.61-1.42-12.22,4.89-15.35,10.55-4.75,8.62-9.88,15.09-20.68,12.59-6-1.38-12.68-4.1-18.51-6.67,7.1-1.25,11.75-2.32,18.32-7.4,1.8-1.39,3.56-2.84,5.39-4.18,1.55-1.14,10.54-5.87,10.37-5.65.4-.54,1.33-.39,1.78-1.22a.56.56,0,0,0-.22-.82c-8.9-3.82-19.69,2-26.11,7.66-5.41,4.73-9.25,8.13-16.84,6.83-5.78-1-10.44-3.33-15.55-6.14-1.95-1.06-3.76-2.68-5.82-2.77a41.81,41.81,0,0,0,4.09-6.47,16.13,16.13,0,0,0,1.91-6.53,9.27,9.27,0,0,0-2.9-7.07,10.4,10.4,0,0,0-7.37-3,9.84,9.84,0,0,0-6.92,2.38,16.52,16.52,0,0,0-4.5,7.46,16.82,16.82,0,0,0-4.21-7.67,9.74,9.74,0,0,0-6.75-2.66,10.47,10.47,0,0,0-7.54,2.71,9.3,9.3,0,0,0-3.2,6.94,16.23,16.23,0,0,0,1.62,6.67,45.2,45.2,0,0,0,4.94,8.31c.35.45.84,1.12,1.49,2l.4.56a36.38,36.38,0,0,1-7.39,3.79c-8.37,2.76-13.28,1.39-19.61-3.77-7.58-6.18-17.82-14.44-28.58-9.82-.27.12-1.08.63-.85,1.06.93,1.74,4.64,2.15,5.74,2.69,4.25,2.11,7.94,5.41,11.67,8.29,3.55,2.74,6.72,5.18,11,6.44-.43-.13,6.85,1.48,6.42,1.13q3.3-.54-1.44.81L240.66,609c-5.92,2.15-12.41,5.84-18.79,5-7.12-.89-11.37-7.6-14.7-13.58-3-5.35-7-11.65-14.39-10.27-.52.1-2.13.63-1.5,1.47,1.31,1.74,2,.89,4.48,3.52,2.61,2.83,3.68,6.59,4.77,10.09,1.26,4.07,1.38,6.13,5.05,8.88,1.86,1.39,3.53,1.68,5.39,2.77a4.64,4.64,0,0,0,2.79.44c-.35.08-.95.23-1.91.52a70.13,70.13,0,0,1-17.74,2.78c-10.41.2-9.9-3-14.24-9.57a23.93,23.93,0,0,0-9.59-8.35c-5.18-2.59-14.17-6.22-20-4.47-.37.11-1.22.45-1.23,1-.07,3.46,6.53,4.23,8.91,5.14,8.48,3.21,13.14,11.63,20,17.21A73.23,73.23,0,0,1,157,619.73c-5-1.32-8.65-3.55-10.58-8.32-1.5-3.71-.62-7.87-2.77-11.66-3.93-6.92-15.92-13.25-23.46-13.7-.66,0-1.81.29-2,1.05-1,4.24,9.07,9.48,11.6,11.3,6.55,4.71,7.45,11,10.85,16.92-5.18-1.79-10.78-2.91-15.67-5.6-7.21-4-12.31-10.27-19.6-14.28A102.48,102.48,0,0,1,89,583.65c-3.42-2.85-5.89-7.74-10.56-7.45a2,2,0,0,0-1.53.8c-3.43,7.22,11.7,18,16.14,21.52a39.3,39.3,0,0,0,11.2,6.53c4.48,1.66,12.45,2,16.29,5.56-8.27.06-16.31-.17-24.43-2.24-5.06-1.28-10-2.87-15.09-1-.52.19-1.06.7-.75,1.26,1.4,2.45,6.33,3.2,9,4.43a38.68,38.68,0,0,0,14.45,3.74c12,.55,23-2.78,34.53,1.56-8.21,1.66-16.36,4-24.73,4.46-5.35.26-14.61-2.12-19.08,1.87-.21.18-.45.65-.16.88,4.92,3.95,19.36,2.73,25.43,2.7a35.33,35.33,0,0,0,11-1.69c9.39-3.09,15.39-5.43,25.56-4.18,2.88.35,6.33,1.25,9.25,1.16h0a50.58,50.58,0,0,0-14.3,5.2c-5.81,3.26-15.88,11.15-16.58,18.3-.07.65.79.78,1.27.72,8.62-1.17,13.94-9.46,20.69-13.87,11.54-7.56,26-9.51,39.42-11,3.53-.38,7-.89,10.51-1.51.89-.16,4.51-1.43,5.46-1,2.19.93.82.28-.94,2.77-2.95,4.19-9.26,5.69-14.11,6.75-8.37,1.83-18.18,2.25-24.28,9.23-.14.16-.37.44-.27.68l.23.56a1.15,1.15,0,0,0,1.26.49l1.47-.27c.22.15.65.08,1.3-.24,7.28-1.35,14.7-2.74,22-4.19,5.92-1.18,11.81-2.91,16-7.51,2.32-2.56,3.57-5.92,6.12-8.31,3.93-3.68,12.28-5.82,17.6-7.8,6.37-2.37,12.61-4.89,18.83-7.55-5.52,7.22-11.23,15.73-18.85,19.94-3.13,1.73-12.52,5.73-12.56,9.74,0,.68.73.75,1.27.72,5.25-.35,12-3.49,17-5.51,4.4-1.8,9.47-4.74,12.25-8.72,3.23-4.63,2.78-11,5.79-15.76a15.56,15.56,0,0,1,6.66-5.5q8.86,12.63,10.49,19.25,1.95-7.22,13.67-21.82l1-1.2c4.41,4.73,12,4.88,15.54,11.83,2.28,4.45,2.11,10,4.95,14.2,2.58,3.78,7.61,6.75,11.76,8.46,4.61,1.91,12,5.16,16.91,5.48.49,0,2-.28,2-1,0-4.71-11.53-9.1-15-11.08-3.86-2.2-7.05-4.31-9.32-8.21-1.17-2-1.71-4.3-2.92-6.26a15.86,15.86,0,0,0-2.09-2.6c4.06,1.72,8.13,3.39,12.29,4.92,9.58,3.55,19.29,5.58,25.46,14.16,4,5.6,8,8.47,14.8,10.19a121.56,121.56,0,0,0,14.31,2.22c4.73.6,8.75,2.29,13.31,3.13.64.12,1.92,0,2.22-.77l.23-.56c.1-.23.17-.44,0-.66-4.75-5.44-12-6.74-18.71-8-8.68-1.67-17.12-4.12-23.1-11,2.74.33,5.49.8,8.24,1.31,1.07.22,2.14.41,3.21.6,3.13.58,6.25,1.14,9.36,1.48a119.88,119.88,0,0,1,22.89,4.62c9.46,3,15.48,7.37,22.94,13.77,3.26,2.8,6.58,5.53,11,6.13.7.1,2.06-.39,2-1.27-.7-7.17-10.54-14.75-16.36-18A53,53,0,0,0,406.92,624l.42,0c4.67-.55,9.07-1.48,13.78-1.33,11.26.34,20.61,6.53,32.14,6.24,5.86-.15,18.12,1,22.93-2.86.23-.18.43-.64.16-.88-4.81-4.3-17.39-1.3-23.67-2.13-5.91-.79-12.77-1.73-18.39-3.8-.41-.15-.74-.24-1-.32a3.72,3.72,0,0,0,1-.43c1.46-.87,8.53-2.4,9-2.45,10.87-1,21,3.3,31.83,0,3.53-1.07,13.49-4.07,15.27-7.18.27-.47-.07-.76-.49-.91-7-2.55-14.92,1.64-21.75,2.72-.83.13-18.29,2.38-19.27.65C448.68,610.87,462.23,607,464.48,606.24Z"/></g></g></svg>